<?xml version="1.0" encoding="UTF-8" ?>
<!DOCTYPE svg PUBLIC "-//W3C//DTD SVG 1.1//EN" "http://www.w3.org/Graphics/SVG/1.1/DTD/svg11.dtd">
<svg width="50pt" height="50pt" viewBox="0 0 50 50" version="1.1" xmlns="http://www.w3.org/2000/svg">
<g id="#ffffffff">
<path fill="#ffffff" opacity="1.00" d=" M 23.68 0.00 L 25.89 0.00 C 38.44 0.24 49.50 11.07 50.00 23.61 L 50.00 26.05 C 49.72 38.63 38.73 49.58 26.19 50.00 L 24.08 50.00 C 11.51 49.75 0.48 38.88 0.00 26.32 L 0.00 23.77 C 0.42 11.30 11.24 0.50 23.68 0.00 M 19.40 2.71 C 9.40 5.05 1.85 14.76 1.99 25.02 C 1.94 33.73 7.29 42.16 15.21 45.80 C 22.41 49.26 31.40 48.56 37.95 43.98 C 44.15 39.83 48.03 32.48 47.98 25.02 C 48.04 18.05 44.67 11.16 39.15 6.90 C 33.68 2.55 26.16 0.96 19.40 2.71 Z" />
<path fill="#ffffff" opacity="1.00" d=" M 25.42 12.28 C 27.45 11.72 29.60 12.06 31.69 12.00 C 31.71 13.51 31.73 15.03 31.76 16.55 C 30.10 16.63 28.45 16.71 26.81 16.84 C 26.72 18.44 26.64 20.04 26.57 21.64 C 28.28 21.65 29.98 21.66 31.69 21.66 C 31.71 23.30 31.73 24.95 31.75 26.59 C 30.04 26.61 28.33 26.65 26.63 26.67 C 26.66 30.45 26.63 34.23 26.72 38.00 C 25.02 38.00 23.32 38.00 21.62 38.00 C 21.66 34.22 21.63 30.44 21.73 26.66 C 20.15 26.67 18.58 26.66 17.00 26.66 C 17.00 24.99 17.00 23.33 17.00 21.66 C 18.58 21.65 20.16 21.61 21.74 21.60 C 21.44 18.22 21.93 13.87 25.42 12.28 Z" />
</g>
</svg>
