<?xml version="1.0" encoding="UTF-8" ?>
<!DOCTYPE svg PUBLIC "-//W3C//DTD SVG 1.1//EN" "http://www.w3.org/Graphics/SVG/1.1/DTD/svg11.dtd">
<svg width="50pt" height="50pt" viewBox="0 0 50 50" version="1.1" xmlns="http://www.w3.org/2000/svg">
<g id="#fefefefe">
<path fill="#fefefe" opacity="1.00" d=" M 23.55 0.00 L 26.02 0.00 C 38.48 0.32 49.42 11.03 50.00 23.48 L 50.00 26.26 C 49.58 38.73 38.72 49.53 26.28 50.00 L 23.96 50.00 C 11.46 49.68 0.52 38.89 0.00 26.39 L 0.00 23.61 C 0.52 11.25 11.21 0.58 23.55 0.00 M 19.48 2.69 C 9.47 4.99 1.88 14.69 2.00 24.96 C 1.91 33.93 7.57 42.58 15.83 46.08 C 22.70 49.12 31.05 48.48 37.34 44.38 C 43.90 40.29 48.05 32.70 47.98 24.97 C 48.03 17.76 44.40 10.67 38.56 6.45 C 33.17 2.46 25.98 1.03 19.48 2.69 Z" />
<path fill="#fefefe" opacity="1.00" d=" M 12.21 16.96 C 12.10 14.34 14.22 11.52 17.01 11.61 C 22.34 11.50 27.68 11.55 33.02 11.58 C 35.07 11.39 36.83 12.70 37.84 14.38 C 38.16 21.27 37.88 28.19 38.05 35.09 C 35.94 38.78 31.55 37.69 28.01 37.80 C 24.01 37.72 20.01 37.96 16.02 37.70 C 13.72 37.58 12.28 35.05 12.22 32.96 C 12.16 27.63 12.19 22.29 12.21 16.96 M 30.88 14.74 C 30.89 16.21 30.89 17.69 30.90 19.17 C 32.41 19.18 33.92 19.18 35.43 19.17 C 35.44 17.69 35.45 16.20 35.47 14.72 C 33.94 14.72 32.41 14.72 30.88 14.74 M 23.51 20.59 C 19.89 21.74 19.72 27.44 23.20 28.87 C 26.02 30.57 29.85 28.06 29.89 24.91 C 30.08 21.77 26.38 19.14 23.51 20.59 M 14.63 22.11 C 14.81 26.04 14.29 30.01 14.89 33.90 C 15.18 34.21 15.78 34.81 16.08 35.12 C 20.68 35.71 25.34 35.18 29.97 35.38 C 31.95 35.26 34.71 35.94 35.80 33.72 C 36.06 29.88 35.78 26.02 35.96 22.17 C 34.73 22.11 33.50 22.07 32.26 22.06 C 33.30 26.19 31.17 30.88 26.83 31.88 C 21.39 33.32 16.51 27.17 18.34 22.05 C 17.41 22.07 15.56 22.10 14.63 22.11 Z" />
</g>
</svg>
