<?xml version="1.0" encoding="UTF-8" ?>
<!DOCTYPE svg PUBLIC "-//W3C//DTD SVG 1.1//EN" "http://www.w3.org/Graphics/SVG/1.1/DTD/svg11.dtd">
<svg width="50pt" height="50pt" viewBox="0 0 50 50" version="1.1" xmlns="http://www.w3.org/2000/svg">
<g id="#ffffffff">
<path fill="#ffffff" opacity="1.00" d=" M 23.37 0.00 L 26.19 0.00 C 38.52 0.42 49.30 10.98 50.00 23.30 L 50.00 26.25 C 49.59 38.69 38.79 49.46 26.38 50.00 L 23.77 50.00 C 11.37 49.56 0.58 38.87 0.00 26.48 L 0.00 23.76 C 0.43 11.39 11.06 0.69 23.37 0.00 M 19.51 2.68 C 9.45 4.98 1.84 14.73 1.99 25.05 C 1.94 34.01 7.64 42.65 15.91 46.11 C 22.79 49.13 31.14 48.46 37.42 44.33 C 43.63 40.41 47.69 33.34 47.96 26.00 C 48.34 18.70 44.93 11.34 39.13 6.89 C 33.70 2.57 26.24 0.98 19.51 2.68 Z" />
<path fill="#ffffff" opacity="1.00" d=" M 16.64 18.48 C 18.91 11.88 28.15 9.07 33.53 13.68 C 39.44 18.06 37.01 29.05 29.81 30.55 C 27.89 31.12 26.19 29.99 24.80 28.81 C 24.24 32.20 23.17 35.63 20.71 38.15 C 20.03 33.29 21.69 28.61 22.52 23.90 C 21.71 21.22 22.33 18.30 25.00 16.97 C 29.30 18.80 25.53 23.66 25.78 26.98 C 27.69 28.40 30.89 28.04 31.73 25.58 C 33.10 22.54 34.05 18.28 31.27 15.72 C 27.54 12.42 20.68 14.53 19.59 19.47 C 18.79 21.46 19.69 23.43 20.80 25.08 C 20.58 25.61 20.14 26.68 19.92 27.21 C 16.64 25.75 15.50 21.71 16.64 18.48 Z" />
</g>
</svg>
